<?xml version="1.0" standalone="no"?>
<!DOCTYPE svg PUBLIC "-//W3C//DTD SVG 20010904//EN"
 "http://www.w3.org/TR/2001/REC-SVG-20010904/DTD/svg10.dtd">
<svg version="1.0" xmlns="http://www.w3.org/2000/svg"
 width="256.000000pt" height="256.000000pt" viewBox="0 0 256.000000 256.000000"
 preserveAspectRatio="xMidYMid meet">
<metadata>
Created by potrace 1.11, written by Peter Selinger 2001-2013
</metadata>
<g transform="translate(0.000000,256.000000) scale(0.100000,-0.100000)"
fill="#000000" stroke="none">
<path d="M0 1280 l0 -1280 1280 0 1280 0 0 1280 0 1280 -1280 0 -1280 0 0
-1280z m908 458 c40 -107 373 -952 378 -960 3 -5 -41 -7 -97 -6 l-103 3 -36
95 -36 95 -236 3 -235 2 -32 -87 c-17 -49 -35 -94 -40 -101 -5 -9 -34 -12
-104 -10 l-95 3 196 507 197 508 112 0 112 0 19 -52z m1143 26 c101 -47 158
-148 146 -260 -9 -87 -50 -149 -122 -186 l-39 -21 42 -20 c81 -38 142 -139
142 -237 0 -103 -61 -200 -152 -241 -52 -23 -61 -24 -355 -27 l-303 -3 0 511
0 511 298 -3 c278 -3 300 -4 343 -24z"/>
<path d="M686 1370 c-47 -127 -86 -235 -86 -240 0 -6 69 -10 180 -10 99 0 180
3 180 7 0 15 -175 473 -181 473 -4 0 -45 -104 -93 -230z"/>
<path d="M1587 1634 c-4 -4 -7 -65 -7 -136 l0 -128 170 0 c190 0 216 6 250 63
38 61 18 146 -43 182 -28 17 -55 20 -197 23 -91 2 -168 0 -173 -4z"/>
<path d="M1582 1068 l3 -143 175 0 c158 0 178 2 210 20 97 57 90 198 -12 251
-20 10 -71 14 -203 14 l-176 0 3 -142z"/>
</g>
</svg>
